<mxfile host="app.diagrams.net" modified="2022-08-18T03:51:53.273Z" agent="5.0 (Windows NT 10.0; Win64; x64) AppleWebKit/537.36 (KHTML, like Gecko) Chrome/103.0.0.0 Safari/537.36" etag="Ogvb6EdDt358U_nu9ikL" version="20.2.4" type="github">
  <diagram id="C5RBs43oDa-KdzZeNtuy" name="Page-1">
    <mxGraphModel dx="2605" dy="950" grid="1" gridSize="10" guides="1" tooltips="1" connect="1" arrows="1" fold="1" page="1" pageScale="1" pageWidth="827" pageHeight="1169" math="0" shadow="0">
      <root>
        <mxCell id="WIyWlLk6GJQsqaUBKTNV-0" />
        <mxCell id="WIyWlLk6GJQsqaUBKTNV-1" parent="WIyWlLk6GJQsqaUBKTNV-0" />
        <mxCell id="WxfKijYovhRXDLQv0Ypq-139" style="edgeStyle=orthogonalEdgeStyle;rounded=0;orthogonalLoop=1;jettySize=auto;html=1;fontSize=16;entryX=0.5;entryY=0;entryDx=0;entryDy=0;" edge="1" parent="WIyWlLk6GJQsqaUBKTNV-1" source="WIyWlLk6GJQsqaUBKTNV-3" target="WxfKijYovhRXDLQv0Ypq-48">
          <mxGeometry relative="1" as="geometry">
            <mxPoint x="310" y="220" as="targetPoint" />
          </mxGeometry>
        </mxCell>
        <mxCell id="WIyWlLk6GJQsqaUBKTNV-3" value="PcAudio" style="rounded=1;whiteSpace=wrap;html=1;fontSize=12;glass=0;strokeWidth=1;shadow=0;" parent="WIyWlLk6GJQsqaUBKTNV-1" vertex="1">
          <mxGeometry x="84" y="150" width="120" height="40" as="geometry" />
        </mxCell>
        <mxCell id="WxfKijYovhRXDLQv0Ypq-52" style="edgeStyle=orthogonalEdgeStyle;rounded=0;orthogonalLoop=1;jettySize=auto;html=1;entryX=0.5;entryY=0;entryDx=0;entryDy=0;" edge="1" parent="WIyWlLk6GJQsqaUBKTNV-1" source="WxfKijYovhRXDLQv0Ypq-0" target="WxfKijYovhRXDLQv0Ypq-48">
          <mxGeometry relative="1" as="geometry" />
        </mxCell>
        <mxCell id="WxfKijYovhRXDLQv0Ypq-0" value="GameAudio" style="rounded=1;whiteSpace=wrap;html=1;fontSize=12;glass=0;strokeWidth=1;shadow=0;" vertex="1" parent="WIyWlLk6GJQsqaUBKTNV-1">
          <mxGeometry x="80" y="250" width="120" height="40" as="geometry" />
        </mxCell>
        <mxCell id="WxfKijYovhRXDLQv0Ypq-1" value="MicAudio" style="rounded=1;whiteSpace=wrap;html=1;fontSize=12;glass=0;strokeWidth=1;shadow=0;" vertex="1" parent="WIyWlLk6GJQsqaUBKTNV-1">
          <mxGeometry x="360" y="210" width="120" height="40" as="geometry" />
        </mxCell>
        <mxCell id="WxfKijYovhRXDLQv0Ypq-2" value="OtherAudio" style="rounded=1;whiteSpace=wrap;html=1;fontSize=12;glass=0;strokeWidth=1;shadow=0;" vertex="1" parent="WIyWlLk6GJQsqaUBKTNV-1">
          <mxGeometry x="80" y="210" width="120" height="40" as="geometry" />
        </mxCell>
        <mxCell id="WxfKijYovhRXDLQv0Ypq-42" style="edgeStyle=orthogonalEdgeStyle;rounded=0;orthogonalLoop=1;jettySize=auto;html=1;entryX=0.5;entryY=0;entryDx=0;entryDy=0;entryPerimeter=0;" edge="1" parent="WIyWlLk6GJQsqaUBKTNV-1" source="WxfKijYovhRXDLQv0Ypq-3" target="WxfKijYovhRXDLQv0Ypq-36">
          <mxGeometry relative="1" as="geometry">
            <mxPoint x="220" y="340" as="targetPoint" />
          </mxGeometry>
        </mxCell>
        <mxCell id="WxfKijYovhRXDLQv0Ypq-3" value="ASIO Drive ALL v2" style="rhombus;whiteSpace=wrap;html=1;" vertex="1" parent="WIyWlLk6GJQsqaUBKTNV-1">
          <mxGeometry x="355" y="280" width="130" height="50" as="geometry" />
        </mxCell>
        <mxCell id="WxfKijYovhRXDLQv0Ypq-4" value="" style="endArrow=classic;html=1;rounded=0;exitX=0.5;exitY=1;exitDx=0;exitDy=0;entryX=0.5;entryY=0;entryDx=0;entryDy=0;" edge="1" parent="WIyWlLk6GJQsqaUBKTNV-1" source="WxfKijYovhRXDLQv0Ypq-1" target="WxfKijYovhRXDLQv0Ypq-3">
          <mxGeometry width="50" height="50" relative="1" as="geometry">
            <mxPoint x="390" y="580" as="sourcePoint" />
            <mxPoint x="440" y="530" as="targetPoint" />
          </mxGeometry>
        </mxCell>
        <mxCell id="WxfKijYovhRXDLQv0Ypq-5" value="JustGame" style="shape=process;whiteSpace=wrap;html=1;backgroundOutline=1;" vertex="1" parent="WIyWlLk6GJQsqaUBKTNV-1">
          <mxGeometry x="360" y="80" width="200" height="80" as="geometry" />
        </mxCell>
        <mxCell id="WxfKijYovhRXDLQv0Ypq-6" value="Dev" style="shape=process;whiteSpace=wrap;html=1;backgroundOutline=1;" vertex="1" parent="WIyWlLk6GJQsqaUBKTNV-1">
          <mxGeometry x="1090" y="870" width="200" height="80" as="geometry" />
        </mxCell>
        <mxCell id="WxfKijYovhRXDLQv0Ypq-7" value="Live" style="shape=process;whiteSpace=wrap;html=1;backgroundOutline=1;" vertex="1" parent="WIyWlLk6GJQsqaUBKTNV-1">
          <mxGeometry x="1370" y="870" width="200" height="80" as="geometry" />
        </mxCell>
        <mxCell id="WxfKijYovhRXDLQv0Ypq-49" style="edgeStyle=orthogonalEdgeStyle;rounded=0;orthogonalLoop=1;jettySize=auto;html=1;" edge="1" parent="WIyWlLk6GJQsqaUBKTNV-1" source="WxfKijYovhRXDLQv0Ypq-12" target="WxfKijYovhRXDLQv0Ypq-48">
          <mxGeometry relative="1" as="geometry" />
        </mxCell>
        <mxCell id="WxfKijYovhRXDLQv0Ypq-12" value="KOOK" style="shape=offPageConnector;whiteSpace=wrap;html=1;size=0.16666666666666669;" vertex="1" parent="WIyWlLk6GJQsqaUBKTNV-1">
          <mxGeometry x="144" y="760" width="60" height="60" as="geometry" />
        </mxCell>
        <mxCell id="WxfKijYovhRXDLQv0Ypq-14" value="ASIO FakeOutPut" style="swimlane;childLayout=stackLayout;horizontal=1;fillColor=none;horizontalStack=1;resizeParent=1;resizeParentMax=0;resizeLast=0;collapsible=0;strokeColor=none;stackBorder=10;stackSpacing=-12;resizable=1;align=center;points=[];fontColor=#000000;" vertex="1" parent="WIyWlLk6GJQsqaUBKTNV-1">
          <mxGeometry x="-150" y="620" width="384" height="90" as="geometry" />
        </mxCell>
        <mxCell id="WxfKijYovhRXDLQv0Ypq-15" value=" MIC" style="shape=step;perimeter=stepPerimeter;fixedSize=1;points=[];" vertex="1" parent="WxfKijYovhRXDLQv0Ypq-14">
          <mxGeometry x="10" y="33" width="100" height="47" as="geometry" />
        </mxCell>
        <mxCell id="WxfKijYovhRXDLQv0Ypq-16" value="    FakeOut 1" style="shape=step;perimeter=stepPerimeter;fixedSize=1;points=[];" vertex="1" parent="WxfKijYovhRXDLQv0Ypq-14">
          <mxGeometry x="98" y="33" width="100" height="47" as="geometry" />
        </mxCell>
        <mxCell id="WxfKijYovhRXDLQv0Ypq-17" value="    FakeOut 2" style="shape=step;perimeter=stepPerimeter;fixedSize=1;points=[];" vertex="1" parent="WxfKijYovhRXDLQv0Ypq-14">
          <mxGeometry x="186" y="33" width="100" height="47" as="geometry" />
        </mxCell>
        <mxCell id="WxfKijYovhRXDLQv0Ypq-19" value="    FakeOut 3" style="shape=step;perimeter=stepPerimeter;fixedSize=1;points=[];" vertex="1" parent="WxfKijYovhRXDLQv0Ypq-14">
          <mxGeometry x="274" y="33" width="100" height="47" as="geometry" />
        </mxCell>
        <mxCell id="WxfKijYovhRXDLQv0Ypq-43" style="edgeStyle=orthogonalEdgeStyle;rounded=0;orthogonalLoop=1;jettySize=auto;html=1;" edge="1" parent="WIyWlLk6GJQsqaUBKTNV-1" source="WxfKijYovhRXDLQv0Ypq-36" target="WxfKijYovhRXDLQv0Ypq-19">
          <mxGeometry relative="1" as="geometry" />
        </mxCell>
        <mxCell id="WxfKijYovhRXDLQv0Ypq-36" value="AU" style="swimlane;startSize=20;horizontal=1;containerType=tree;newEdgeStyle={&quot;edgeStyle&quot;:&quot;elbowEdgeStyle&quot;,&quot;startArrow&quot;:&quot;none&quot;,&quot;endArrow&quot;:&quot;none&quot;};" vertex="1" parent="WIyWlLk6GJQsqaUBKTNV-1">
          <mxGeometry x="80" y="360" width="190" height="220" as="geometry" />
        </mxCell>
        <mxCell id="WxfKijYovhRXDLQv0Ypq-38" value="" style="edgeStyle=elbowEdgeStyle;elbow=vertical;startArrow=none;endArrow=none;rounded=0;" edge="1" parent="WxfKijYovhRXDLQv0Ypq-36" source="WxfKijYovhRXDLQv0Ypq-39" target="WxfKijYovhRXDLQv0Ypq-41">
          <mxGeometry relative="1" as="geometry">
            <mxPoint x="120" y="120" as="sourcePoint" />
          </mxGeometry>
        </mxCell>
        <UserObject label="Mix03 IN" treeRoot="1" id="WxfKijYovhRXDLQv0Ypq-39">
          <mxCell style="whiteSpace=wrap;html=1;align=center;treeFolding=1;treeMoving=1;newEdgeStyle={&quot;edgeStyle&quot;:&quot;elbowEdgeStyle&quot;,&quot;startArrow&quot;:&quot;none&quot;,&quot;endArrow&quot;:&quot;none&quot;};" vertex="1" parent="WxfKijYovhRXDLQv0Ypq-36">
            <mxGeometry x="40" y="40" width="110" height="60" as="geometry" />
          </mxCell>
        </UserObject>
        <mxCell id="WxfKijYovhRXDLQv0Ypq-41" value="Mix 06 Out" style="whiteSpace=wrap;html=1;align=center;verticalAlign=middle;treeFolding=1;treeMoving=1;newEdgeStyle={&quot;edgeStyle&quot;:&quot;elbowEdgeStyle&quot;,&quot;startArrow&quot;:&quot;none&quot;,&quot;endArrow&quot;:&quot;none&quot;};" vertex="1" parent="WxfKijYovhRXDLQv0Ypq-36">
          <mxGeometry x="40" y="130" width="110" height="60" as="geometry" />
        </mxCell>
        <mxCell id="WxfKijYovhRXDLQv0Ypq-44" style="edgeStyle=orthogonalEdgeStyle;rounded=0;orthogonalLoop=1;jettySize=auto;html=1;" edge="1" parent="WIyWlLk6GJQsqaUBKTNV-1" source="WxfKijYovhRXDLQv0Ypq-19" target="WxfKijYovhRXDLQv0Ypq-12">
          <mxGeometry relative="1" as="geometry" />
        </mxCell>
        <mxCell id="WxfKijYovhRXDLQv0Ypq-46" value="DefaultAudio" style="shape=delay;whiteSpace=wrap;html=1;" vertex="1" parent="WIyWlLk6GJQsqaUBKTNV-1">
          <mxGeometry x="56" y="895" width="144" height="30" as="geometry" />
        </mxCell>
        <mxCell id="WxfKijYovhRXDLQv0Ypq-48" value="OtherAudio" style="shape=delay;whiteSpace=wrap;html=1;" vertex="1" parent="WIyWlLk6GJQsqaUBKTNV-1">
          <mxGeometry x="240" y="895" width="144" height="30" as="geometry" />
        </mxCell>
        <mxCell id="WxfKijYovhRXDLQv0Ypq-54" value="FakeAudio1" style="rounded=0;whiteSpace=wrap;html=1;" vertex="1" parent="WIyWlLk6GJQsqaUBKTNV-1">
          <mxGeometry x="360" y="360" width="90" height="40" as="geometry" />
        </mxCell>
        <mxCell id="WxfKijYovhRXDLQv0Ypq-55" value="FakeAudio1" style="rounded=0;whiteSpace=wrap;html=1;" vertex="1" parent="WIyWlLk6GJQsqaUBKTNV-1">
          <mxGeometry x="460" y="360" width="90" height="40" as="geometry" />
        </mxCell>
        <mxCell id="WxfKijYovhRXDLQv0Ypq-56" value="FakeAudio1" style="rounded=0;whiteSpace=wrap;html=1;" vertex="1" parent="WIyWlLk6GJQsqaUBKTNV-1">
          <mxGeometry x="560" y="360" width="90" height="40" as="geometry" />
        </mxCell>
        <mxCell id="WxfKijYovhRXDLQv0Ypq-57" value="FakeAudio1" style="rounded=0;whiteSpace=wrap;html=1;" vertex="1" parent="WIyWlLk6GJQsqaUBKTNV-1">
          <mxGeometry x="660" y="360" width="90" height="40" as="geometry" />
        </mxCell>
        <mxCell id="WxfKijYovhRXDLQv0Ypq-58" value="MicLeft" style="rounded=0;whiteSpace=wrap;html=1;" vertex="1" parent="WIyWlLk6GJQsqaUBKTNV-1">
          <mxGeometry x="360" y="420" width="90" height="40" as="geometry" />
        </mxCell>
        <mxCell id="WxfKijYovhRXDLQv0Ypq-59" value="MicRight" style="rounded=0;whiteSpace=wrap;html=1;" vertex="1" parent="WIyWlLk6GJQsqaUBKTNV-1">
          <mxGeometry x="460" y="420" width="90" height="40" as="geometry" />
        </mxCell>
        <mxCell id="WxfKijYovhRXDLQv0Ypq-64" value="" style="shape=table;startSize=0;container=1;collapsible=0;childLayout=tableLayout;strokeWidth=1;fontSize=16;" vertex="1" parent="WIyWlLk6GJQsqaUBKTNV-1">
          <mxGeometry x="360" y="480" width="210" height="40" as="geometry" />
        </mxCell>
        <mxCell id="WxfKijYovhRXDLQv0Ypq-65" value="" style="shape=tableRow;horizontal=0;startSize=0;swimlaneHead=0;swimlaneBody=0;top=0;left=0;bottom=0;right=0;collapsible=0;dropTarget=0;fillColor=none;points=[[0,0.5],[1,0.5]];portConstraint=eastwest;fontSize=16;" vertex="1" parent="WxfKijYovhRXDLQv0Ypq-64">
          <mxGeometry width="210" height="40" as="geometry" />
        </mxCell>
        <mxCell id="WxfKijYovhRXDLQv0Ypq-66" value="1" style="shape=partialRectangle;html=1;whiteSpace=wrap;connectable=0;overflow=hidden;fillColor=none;top=0;left=0;bottom=0;right=0;pointerEvents=1;fontSize=16;" vertex="1" parent="WxfKijYovhRXDLQv0Ypq-65">
          <mxGeometry width="42" height="40" as="geometry">
            <mxRectangle width="42" height="40" as="alternateBounds" />
          </mxGeometry>
        </mxCell>
        <mxCell id="WxfKijYovhRXDLQv0Ypq-67" value="2" style="shape=partialRectangle;html=1;whiteSpace=wrap;connectable=0;overflow=hidden;fillColor=none;top=0;left=0;bottom=0;right=0;pointerEvents=1;fontSize=16;" vertex="1" parent="WxfKijYovhRXDLQv0Ypq-65">
          <mxGeometry x="42" width="42" height="40" as="geometry">
            <mxRectangle width="42" height="40" as="alternateBounds" />
          </mxGeometry>
        </mxCell>
        <mxCell id="WxfKijYovhRXDLQv0Ypq-68" value="3" style="shape=partialRectangle;html=1;whiteSpace=wrap;connectable=0;overflow=hidden;fillColor=none;top=0;left=0;bottom=0;right=0;pointerEvents=1;fontSize=16;" vertex="1" parent="WxfKijYovhRXDLQv0Ypq-65">
          <mxGeometry x="84" width="42" height="40" as="geometry">
            <mxRectangle width="42" height="40" as="alternateBounds" />
          </mxGeometry>
        </mxCell>
        <mxCell id="WxfKijYovhRXDLQv0Ypq-69" value="4" style="shape=partialRectangle;html=1;whiteSpace=wrap;connectable=0;overflow=hidden;fillColor=none;top=0;left=0;bottom=0;right=0;pointerEvents=1;fontSize=16;" vertex="1" parent="WxfKijYovhRXDLQv0Ypq-65">
          <mxGeometry x="126" width="42" height="40" as="geometry">
            <mxRectangle width="42" height="40" as="alternateBounds" />
          </mxGeometry>
        </mxCell>
        <mxCell id="WxfKijYovhRXDLQv0Ypq-70" value="5" style="shape=partialRectangle;html=1;whiteSpace=wrap;connectable=0;overflow=hidden;fillColor=none;top=0;left=0;bottom=0;right=0;pointerEvents=1;fontSize=16;" vertex="1" parent="WxfKijYovhRXDLQv0Ypq-65">
          <mxGeometry x="168" width="42" height="40" as="geometry">
            <mxRectangle width="42" height="40" as="alternateBounds" />
          </mxGeometry>
        </mxCell>
        <mxCell id="WxfKijYovhRXDLQv0Ypq-71" value="" style="shape=table;startSize=0;container=1;collapsible=0;childLayout=tableLayout;strokeWidth=1;fontSize=16;" vertex="1" parent="WIyWlLk6GJQsqaUBKTNV-1">
          <mxGeometry x="580" y="480" width="210" height="40" as="geometry" />
        </mxCell>
        <mxCell id="WxfKijYovhRXDLQv0Ypq-72" value="" style="shape=tableRow;horizontal=0;startSize=0;swimlaneHead=0;swimlaneBody=0;top=0;left=0;bottom=0;right=0;collapsible=0;dropTarget=0;fillColor=none;points=[[0,0.5],[1,0.5]];portConstraint=eastwest;fontSize=16;" vertex="1" parent="WxfKijYovhRXDLQv0Ypq-71">
          <mxGeometry width="210" height="40" as="geometry" />
        </mxCell>
        <mxCell id="WxfKijYovhRXDLQv0Ypq-73" value="6" style="shape=partialRectangle;html=1;whiteSpace=wrap;connectable=0;overflow=hidden;fillColor=none;top=0;left=0;bottom=0;right=0;pointerEvents=1;fontSize=16;" vertex="1" parent="WxfKijYovhRXDLQv0Ypq-72">
          <mxGeometry width="42" height="40" as="geometry">
            <mxRectangle width="42" height="40" as="alternateBounds" />
          </mxGeometry>
        </mxCell>
        <mxCell id="WxfKijYovhRXDLQv0Ypq-74" value="7" style="shape=partialRectangle;html=1;whiteSpace=wrap;connectable=0;overflow=hidden;fillColor=none;top=0;left=0;bottom=0;right=0;pointerEvents=1;fontSize=16;" vertex="1" parent="WxfKijYovhRXDLQv0Ypq-72">
          <mxGeometry x="42" width="42" height="40" as="geometry">
            <mxRectangle width="42" height="40" as="alternateBounds" />
          </mxGeometry>
        </mxCell>
        <mxCell id="WxfKijYovhRXDLQv0Ypq-75" value="8" style="shape=partialRectangle;html=1;whiteSpace=wrap;connectable=0;overflow=hidden;fillColor=none;top=0;left=0;bottom=0;right=0;pointerEvents=1;fontSize=16;" vertex="1" parent="WxfKijYovhRXDLQv0Ypq-72">
          <mxGeometry x="84" width="42" height="40" as="geometry">
            <mxRectangle width="42" height="40" as="alternateBounds" />
          </mxGeometry>
        </mxCell>
        <mxCell id="WxfKijYovhRXDLQv0Ypq-76" value="9" style="shape=partialRectangle;html=1;whiteSpace=wrap;connectable=0;overflow=hidden;fillColor=none;top=0;left=0;bottom=0;right=0;pointerEvents=1;fontSize=16;" vertex="1" parent="WxfKijYovhRXDLQv0Ypq-72">
          <mxGeometry x="126" width="42" height="40" as="geometry">
            <mxRectangle width="42" height="40" as="alternateBounds" />
          </mxGeometry>
        </mxCell>
        <mxCell id="WxfKijYovhRXDLQv0Ypq-77" value="10" style="shape=partialRectangle;html=1;whiteSpace=wrap;connectable=0;overflow=hidden;fillColor=none;top=0;left=0;bottom=0;right=0;pointerEvents=1;fontSize=16;" vertex="1" parent="WxfKijYovhRXDLQv0Ypq-72">
          <mxGeometry x="168" width="42" height="40" as="geometry">
            <mxRectangle width="42" height="40" as="alternateBounds" />
          </mxGeometry>
        </mxCell>
        <mxCell id="WxfKijYovhRXDLQv0Ypq-89" value="" style="shape=table;startSize=0;container=1;collapsible=0;childLayout=tableLayout;strokeWidth=1;fontSize=16;" vertex="1" parent="WIyWlLk6GJQsqaUBKTNV-1">
          <mxGeometry x="580" y="540" width="210" height="40" as="geometry" />
        </mxCell>
        <mxCell id="WxfKijYovhRXDLQv0Ypq-90" value="" style="shape=tableRow;horizontal=0;startSize=0;swimlaneHead=0;swimlaneBody=0;top=0;left=0;bottom=0;right=0;collapsible=0;dropTarget=0;fillColor=none;points=[[0,0.5],[1,0.5]];portConstraint=eastwest;fontSize=16;" vertex="1" parent="WxfKijYovhRXDLQv0Ypq-89">
          <mxGeometry width="210" height="40" as="geometry" />
        </mxCell>
        <mxCell id="WxfKijYovhRXDLQv0Ypq-91" value="6" style="shape=partialRectangle;html=1;whiteSpace=wrap;connectable=0;overflow=hidden;fillColor=none;top=0;left=0;bottom=0;right=0;pointerEvents=1;fontSize=16;" vertex="1" parent="WxfKijYovhRXDLQv0Ypq-90">
          <mxGeometry width="42" height="40" as="geometry">
            <mxRectangle width="42" height="40" as="alternateBounds" />
          </mxGeometry>
        </mxCell>
        <mxCell id="WxfKijYovhRXDLQv0Ypq-92" value="7" style="shape=partialRectangle;html=1;whiteSpace=wrap;connectable=0;overflow=hidden;fillColor=none;top=0;left=0;bottom=0;right=0;pointerEvents=1;fontSize=16;" vertex="1" parent="WxfKijYovhRXDLQv0Ypq-90">
          <mxGeometry x="42" width="42" height="40" as="geometry">
            <mxRectangle width="42" height="40" as="alternateBounds" />
          </mxGeometry>
        </mxCell>
        <mxCell id="WxfKijYovhRXDLQv0Ypq-93" value="8" style="shape=partialRectangle;html=1;whiteSpace=wrap;connectable=0;overflow=hidden;fillColor=none;top=0;left=0;bottom=0;right=0;pointerEvents=1;fontSize=16;" vertex="1" parent="WxfKijYovhRXDLQv0Ypq-90">
          <mxGeometry x="84" width="42" height="40" as="geometry">
            <mxRectangle width="42" height="40" as="alternateBounds" />
          </mxGeometry>
        </mxCell>
        <mxCell id="WxfKijYovhRXDLQv0Ypq-94" value="9" style="shape=partialRectangle;html=1;whiteSpace=wrap;connectable=0;overflow=hidden;fillColor=none;top=0;left=0;bottom=0;right=0;pointerEvents=1;fontSize=16;" vertex="1" parent="WxfKijYovhRXDLQv0Ypq-90">
          <mxGeometry x="126" width="42" height="40" as="geometry">
            <mxRectangle width="42" height="40" as="alternateBounds" />
          </mxGeometry>
        </mxCell>
        <mxCell id="WxfKijYovhRXDLQv0Ypq-95" value="10" style="shape=partialRectangle;html=1;whiteSpace=wrap;connectable=0;overflow=hidden;fillColor=none;top=0;left=0;bottom=0;right=0;pointerEvents=1;fontSize=16;" vertex="1" parent="WxfKijYovhRXDLQv0Ypq-90">
          <mxGeometry x="168" width="42" height="40" as="geometry">
            <mxRectangle width="42" height="40" as="alternateBounds" />
          </mxGeometry>
        </mxCell>
        <mxCell id="WxfKijYovhRXDLQv0Ypq-103" value="" style="shape=table;startSize=0;container=1;collapsible=0;childLayout=tableLayout;strokeWidth=1;fontSize=16;" vertex="1" parent="WIyWlLk6GJQsqaUBKTNV-1">
          <mxGeometry x="360" y="540" width="210" height="40" as="geometry" />
        </mxCell>
        <mxCell id="WxfKijYovhRXDLQv0Ypq-104" value="" style="shape=tableRow;horizontal=0;startSize=0;swimlaneHead=0;swimlaneBody=0;top=0;left=0;bottom=0;right=0;collapsible=0;dropTarget=0;fillColor=none;points=[[0,0.5],[1,0.5]];portConstraint=eastwest;fontSize=16;" vertex="1" parent="WxfKijYovhRXDLQv0Ypq-103">
          <mxGeometry width="210" height="40" as="geometry" />
        </mxCell>
        <mxCell id="WxfKijYovhRXDLQv0Ypq-105" value="1" style="shape=partialRectangle;html=1;whiteSpace=wrap;connectable=0;overflow=hidden;fillColor=none;top=0;left=0;bottom=0;right=0;pointerEvents=1;fontSize=16;" vertex="1" parent="WxfKijYovhRXDLQv0Ypq-104">
          <mxGeometry width="42" height="40" as="geometry">
            <mxRectangle width="42" height="40" as="alternateBounds" />
          </mxGeometry>
        </mxCell>
        <mxCell id="WxfKijYovhRXDLQv0Ypq-106" value="2" style="shape=partialRectangle;html=1;whiteSpace=wrap;connectable=0;overflow=hidden;fillColor=none;top=0;left=0;bottom=0;right=0;pointerEvents=1;fontSize=16;" vertex="1" parent="WxfKijYovhRXDLQv0Ypq-104">
          <mxGeometry x="42" width="42" height="40" as="geometry">
            <mxRectangle width="42" height="40" as="alternateBounds" />
          </mxGeometry>
        </mxCell>
        <mxCell id="WxfKijYovhRXDLQv0Ypq-107" value="3" style="shape=partialRectangle;html=1;whiteSpace=wrap;connectable=0;overflow=hidden;fillColor=none;top=0;left=0;bottom=0;right=0;pointerEvents=1;fontSize=16;" vertex="1" parent="WxfKijYovhRXDLQv0Ypq-104">
          <mxGeometry x="84" width="42" height="40" as="geometry">
            <mxRectangle width="42" height="40" as="alternateBounds" />
          </mxGeometry>
        </mxCell>
        <mxCell id="WxfKijYovhRXDLQv0Ypq-108" value="4" style="shape=partialRectangle;html=1;whiteSpace=wrap;connectable=0;overflow=hidden;fillColor=none;top=0;left=0;bottom=0;right=0;pointerEvents=1;fontSize=16;" vertex="1" parent="WxfKijYovhRXDLQv0Ypq-104">
          <mxGeometry x="126" width="42" height="40" as="geometry">
            <mxRectangle width="42" height="40" as="alternateBounds" />
          </mxGeometry>
        </mxCell>
        <mxCell id="WxfKijYovhRXDLQv0Ypq-109" value="5" style="shape=partialRectangle;html=1;whiteSpace=wrap;connectable=0;overflow=hidden;fillColor=none;top=0;left=0;bottom=0;right=0;pointerEvents=1;fontSize=16;" vertex="1" parent="WxfKijYovhRXDLQv0Ypq-104">
          <mxGeometry x="168" width="42" height="40" as="geometry">
            <mxRectangle width="42" height="40" as="alternateBounds" />
          </mxGeometry>
        </mxCell>
        <mxCell id="WxfKijYovhRXDLQv0Ypq-117" value="" style="shape=table;startSize=0;container=1;collapsible=0;childLayout=tableLayout;fontSize=16;strokeWidth=1;" vertex="1" parent="WIyWlLk6GJQsqaUBKTNV-1">
          <mxGeometry x="450" y="620" width="80" height="40" as="geometry" />
        </mxCell>
        <mxCell id="WxfKijYovhRXDLQv0Ypq-118" value="" style="shape=tableRow;horizontal=0;startSize=0;swimlaneHead=0;swimlaneBody=0;top=0;left=0;bottom=0;right=0;collapsible=0;dropTarget=0;fillColor=none;points=[[0,0.5],[1,0.5]];portConstraint=eastwest;fontSize=16;strokeWidth=1;" vertex="1" parent="WxfKijYovhRXDLQv0Ypq-117">
          <mxGeometry width="80" height="40" as="geometry" />
        </mxCell>
        <mxCell id="WxfKijYovhRXDLQv0Ypq-119" value="1" style="shape=partialRectangle;html=1;whiteSpace=wrap;connectable=0;overflow=hidden;fillColor=none;top=0;left=0;bottom=0;right=0;pointerEvents=1;fontSize=16;strokeWidth=1;" vertex="1" parent="WxfKijYovhRXDLQv0Ypq-118">
          <mxGeometry width="40" height="40" as="geometry">
            <mxRectangle width="40" height="40" as="alternateBounds" />
          </mxGeometry>
        </mxCell>
        <mxCell id="WxfKijYovhRXDLQv0Ypq-120" value="2" style="shape=partialRectangle;html=1;whiteSpace=wrap;connectable=0;overflow=hidden;fillColor=none;top=0;left=0;bottom=0;right=0;pointerEvents=1;fontSize=16;strokeWidth=1;" vertex="1" parent="WxfKijYovhRXDLQv0Ypq-118">
          <mxGeometry x="40" width="40" height="40" as="geometry">
            <mxRectangle width="40" height="40" as="alternateBounds" />
          </mxGeometry>
        </mxCell>
        <mxCell id="WxfKijYovhRXDLQv0Ypq-121" value="" style="shape=table;startSize=0;container=1;collapsible=0;childLayout=tableLayout;fontSize=16;strokeWidth=1;" vertex="1" parent="WIyWlLk6GJQsqaUBKTNV-1">
          <mxGeometry x="360" y="620" width="80" height="40" as="geometry" />
        </mxCell>
        <mxCell id="WxfKijYovhRXDLQv0Ypq-122" value="" style="shape=tableRow;horizontal=0;startSize=0;swimlaneHead=0;swimlaneBody=0;top=0;left=0;bottom=0;right=0;collapsible=0;dropTarget=0;fillColor=none;points=[[0,0.5],[1,0.5]];portConstraint=eastwest;fontSize=16;strokeWidth=1;" vertex="1" parent="WxfKijYovhRXDLQv0Ypq-121">
          <mxGeometry width="80" height="40" as="geometry" />
        </mxCell>
        <mxCell id="WxfKijYovhRXDLQv0Ypq-123" value="1" style="shape=partialRectangle;html=1;whiteSpace=wrap;connectable=0;overflow=hidden;fillColor=none;top=0;left=0;bottom=0;right=0;pointerEvents=1;fontSize=16;strokeWidth=1;" vertex="1" parent="WxfKijYovhRXDLQv0Ypq-122">
          <mxGeometry width="40" height="40" as="geometry">
            <mxRectangle width="40" height="40" as="alternateBounds" />
          </mxGeometry>
        </mxCell>
        <mxCell id="WxfKijYovhRXDLQv0Ypq-124" value="2" style="shape=partialRectangle;html=1;whiteSpace=wrap;connectable=0;overflow=hidden;fillColor=none;top=0;left=0;bottom=0;right=0;pointerEvents=1;fontSize=16;strokeWidth=1;" vertex="1" parent="WxfKijYovhRXDLQv0Ypq-122">
          <mxGeometry x="40" width="40" height="40" as="geometry">
            <mxRectangle width="40" height="40" as="alternateBounds" />
          </mxGeometry>
        </mxCell>
        <mxCell id="WxfKijYovhRXDLQv0Ypq-129" value="" style="shape=table;startSize=0;container=1;collapsible=0;childLayout=tableLayout;fontSize=16;strokeWidth=1;" vertex="1" parent="WIyWlLk6GJQsqaUBKTNV-1">
          <mxGeometry x="540" y="620" width="80" height="39.999999999999545" as="geometry" />
        </mxCell>
        <mxCell id="WxfKijYovhRXDLQv0Ypq-130" value="" style="shape=tableRow;horizontal=0;startSize=0;swimlaneHead=0;swimlaneBody=0;top=0;left=0;bottom=0;right=0;collapsible=0;dropTarget=0;fillColor=none;points=[[0,0.5],[1,0.5]];portConstraint=eastwest;fontSize=16;strokeWidth=1;" vertex="1" parent="WxfKijYovhRXDLQv0Ypq-129">
          <mxGeometry width="80" height="40" as="geometry" />
        </mxCell>
        <mxCell id="WxfKijYovhRXDLQv0Ypq-131" value="1" style="shape=partialRectangle;html=1;whiteSpace=wrap;connectable=0;overflow=hidden;fillColor=none;top=0;left=0;bottom=0;right=0;pointerEvents=1;fontSize=16;strokeWidth=1;" vertex="1" parent="WxfKijYovhRXDLQv0Ypq-130">
          <mxGeometry width="40" height="40" as="geometry">
            <mxRectangle width="40" height="40" as="alternateBounds" />
          </mxGeometry>
        </mxCell>
        <mxCell id="WxfKijYovhRXDLQv0Ypq-132" value="2" style="shape=partialRectangle;html=1;whiteSpace=wrap;connectable=0;overflow=hidden;fillColor=none;top=0;left=0;bottom=0;right=0;pointerEvents=1;fontSize=16;strokeWidth=1;" vertex="1" parent="WxfKijYovhRXDLQv0Ypq-130">
          <mxGeometry x="40" width="40" height="40" as="geometry">
            <mxRectangle width="40" height="40" as="alternateBounds" />
          </mxGeometry>
        </mxCell>
        <mxCell id="WxfKijYovhRXDLQv0Ypq-133" value="" style="shape=table;startSize=0;container=1;collapsible=0;childLayout=tableLayout;fontSize=16;strokeWidth=1;" vertex="1" parent="WIyWlLk6GJQsqaUBKTNV-1">
          <mxGeometry x="630" y="620" width="80" height="39.999999999999545" as="geometry" />
        </mxCell>
        <mxCell id="WxfKijYovhRXDLQv0Ypq-134" value="" style="shape=tableRow;horizontal=0;startSize=0;swimlaneHead=0;swimlaneBody=0;top=0;left=0;bottom=0;right=0;collapsible=0;dropTarget=0;fillColor=none;points=[[0,0.5],[1,0.5]];portConstraint=eastwest;fontSize=16;strokeWidth=1;" vertex="1" parent="WxfKijYovhRXDLQv0Ypq-133">
          <mxGeometry width="80" height="40" as="geometry" />
        </mxCell>
        <mxCell id="WxfKijYovhRXDLQv0Ypq-135" value="1" style="shape=partialRectangle;html=1;whiteSpace=wrap;connectable=0;overflow=hidden;fillColor=none;top=0;left=0;bottom=0;right=0;pointerEvents=1;fontSize=16;strokeWidth=1;" vertex="1" parent="WxfKijYovhRXDLQv0Ypq-134">
          <mxGeometry width="40" height="40" as="geometry">
            <mxRectangle width="40" height="40" as="alternateBounds" />
          </mxGeometry>
        </mxCell>
        <mxCell id="WxfKijYovhRXDLQv0Ypq-136" value="2" style="shape=partialRectangle;html=1;whiteSpace=wrap;connectable=0;overflow=hidden;fillColor=none;top=0;left=0;bottom=0;right=0;pointerEvents=1;fontSize=16;strokeWidth=1;" vertex="1" parent="WxfKijYovhRXDLQv0Ypq-134">
          <mxGeometry x="40" width="40" height="40" as="geometry">
            <mxRectangle width="40" height="40" as="alternateBounds" />
          </mxGeometry>
        </mxCell>
        <mxCell id="WxfKijYovhRXDLQv0Ypq-137" value="" style="endArrow=none;html=1;rounded=0;fontSize=16;entryX=0.5;entryY=1;entryDx=0;entryDy=0;exitX=0.549;exitY=0.011;exitDx=0;exitDy=0;exitPerimeter=0;" edge="1" parent="WIyWlLk6GJQsqaUBKTNV-1" source="WxfKijYovhRXDLQv0Ypq-65" target="WxfKijYovhRXDLQv0Ypq-58">
          <mxGeometry width="50" height="50" relative="1" as="geometry">
            <mxPoint x="290" y="500" as="sourcePoint" />
            <mxPoint x="340" y="450" as="targetPoint" />
          </mxGeometry>
        </mxCell>
        <mxCell id="WxfKijYovhRXDLQv0Ypq-138" value="" style="endArrow=none;html=1;rounded=0;fontSize=16;exitX=0.274;exitY=-0.1;exitDx=0;exitDy=0;exitPerimeter=0;entryX=0.099;entryY=1.039;entryDx=0;entryDy=0;entryPerimeter=0;" edge="1" parent="WIyWlLk6GJQsqaUBKTNV-1" source="WxfKijYovhRXDLQv0Ypq-130" target="WxfKijYovhRXDLQv0Ypq-90">
          <mxGeometry width="50" height="50" relative="1" as="geometry">
            <mxPoint x="290" y="500" as="sourcePoint" />
            <mxPoint x="340" y="450" as="targetPoint" />
          </mxGeometry>
        </mxCell>
      </root>
    </mxGraphModel>
  </diagram>
</mxfile>
